<?xml version="1.0" encoding="UTF-8"?>
<svg width="649px" height="472px" viewBox="0 0 649 472" version="1.1" xmlns="http://www.w3.org/2000/svg" xmlns:xlink="http://www.w3.org/1999/xlink">
    <!-- Generator: Sketch 48.2 (47327) - http://www.bohemiancoding.com/sketch -->
    <title>Group</title>
    <desc>Created with Sketch.</desc>
    <defs></defs>
    <g id="Homepage" stroke="none" stroke-width="1" fill="none" fill-rule="evenodd" transform="translate(-340.000000, -5.000000)">
        <g id="Nav" transform="translate(-515.000000, -340.000000)">
            <g id="Group" transform="translate(855.000000, 345.000000)">
                <rect id="Rectangle" fill="#DF967D" x="0" y="0" width="649" height="472"></rect>
                <g id="Logo" transform="translate(110.000000, 141.000000)" fill="#FFFFFF">
                    <path d="M43.7193313,44.1590669 L106.772671,190.013203 L137.032757,137.13011 L79.1110755,1.20608496 L4.56775857,1.20608496 C11.4922303,3.4561102 18.1263677,7.38615429 23.5120679,12.531212 C31.0244665,19.4762899 37.0779354,28.9413961 43.7193313,44.1590669" id="Fill-9"></path>
                    <path d="M255.79448,190.013203 C241.901938,185.482432 236.672722,174.950641 235.900047,152.379301 L231.13912,37.1521998 C230.030839,13.7932262 236.906866,4.97922681 249.659908,1.20608496 L177.364055,1.20608496 L183.295703,156.505003 C184.38057,177.793625 176.848939,186.225059 164.439308,190.013203 L255.79448,190.013203 Z" id="Fill-11"></path>
                    <polygon id="Fill-13" points="0 190.013203 45.6775857 190.013203 22.8168395 153.17279"></polygon>
                    <path d="M342.581893,190.013203 C334.227167,186.603868 330.412224,179.58681 330.412224,168.080304 L330.412224,51.8616533 L274.065514,84.051949 C275.362595,84.8675443 276.644416,85.8007028 277.437924,86.5722118 C283.03063,90.3489322 286.42593,94.8677708 286.42593,106.050978 L286.42593,167.176536 C286.42593,181.37965 283.198488,187.118207 276.156103,190.013203 L342.581893,190.013203 Z" id="Fill-15"></path>
                    <polygon id="Fill-17" points="347.149651 74.9198728 383.69172 97.9121699 383.69172 51.8616533"></polygon>
                    <path d="M406.523227,143.962687 C393.927287,143.962687 383.69172,154.291707 383.69172,166.984331 C383.69172,179.684183 393.927287,190.013203 406.523227,190.013203 C419.119168,190.013203 429.369305,179.684183 429.369305,166.984331 C429.369305,154.291707 419.119168,143.962687 406.523227,143.962687" id="Fill-19"></path>
                </g>
            </g>
        </g>
    </g>
</svg>